<?xml version="1.0" encoding="UTF-8" standalone="no"?>
<!-- Created with Inkscape (http://www.inkscape.org/) -->

<svg
   xmlns:dc="http://purl.org/dc/elements/1.1/"
   xmlns:cc="http://creativecommons.org/ns#"
   xmlns:rdf="http://www.w3.org/1999/02/22-rdf-syntax-ns#"
   xmlns:svg="http://www.w3.org/2000/svg"
   xmlns="http://www.w3.org/2000/svg"
   xmlns:sodipodi="http://sodipodi.sourceforge.net/DTD/sodipodi-0.dtd"
   xmlns:inkscape="http://www.inkscape.org/namespaces/inkscape"
   width="61.747292mm"
   height="14.167581mm"
   viewBox="0 0 61.747292 14.167581"
   version="1.1"
   id="svg8"
   inkscape:version="0.92.5 (2060ec1f9f, 2020-04-08)"
   sodipodi:docname="fishLense.svg">
  <defs
     id="defs2" />
  <sodipodi:namedview
     id="base"
     pagecolor="#ffffff"
     bordercolor="#666666"
     borderopacity="1.0"
     inkscape:pageopacity="0.0"
     inkscape:pageshadow="2"
     inkscape:zoom="5.6"
     inkscape:cx="52.166507"
     inkscape:cy="73.132954"
     inkscape:document-units="mm"
     inkscape:current-layer="text817"
     showgrid="false"
     inkscape:window-width="3840"
     inkscape:window-height="2272"
     inkscape:window-x="0"
     inkscape:window-y="54"
     inkscape:window-maximized="1" />
  <metadata
     id="metadata5">
    <rdf:RDF>
      <cc:Work
         rdf:about="">
        <dc:format>image/svg+xml</dc:format>
        <dc:type
           rdf:resource="http://purl.org/dc/dcmitype/StillImage" />
        <dc:title></dc:title>
      </cc:Work>
    </rdf:RDF>
  </metadata>
  <g
     inkscape:label="Layer 1"
     inkscape:groupmode="layer"
     id="layer1"
     transform="translate(-60.081887,-142.0282)">
    <g
       id="g960">
      <g
         aria-label="FishL  nse"
         style="font-style:normal;font-weight:normal;font-size:5.64444447px;line-height:1.25;font-family:sans-serif;letter-spacing:0px;word-spacing:0px;fill:#000000;fill-opacity:1;stroke:none;stroke-width:0.26458332"
         id="text817">
        <path
           d="m 60.094587,144.24983 c 0,0.2667 0.0127,4.2291 0,6.0579 0,0.3302 -0.0127,0.5969 -0.0127,0.7366 0,0.4953 0.0635,0.8128 0.5969,0.8128 h 0.5842 c 0.5588,0 0.5842,-0.3556 0.5842,-0.8382 0,-0.3048 -0.0508,-1.27 -0.0508,-2.4892 0.8128,-0.0127 2.5527,-0.0254 2.921,0.0127 0.3048,0.0254 0.4191,-0.0889 0.4191,-0.4191 v -0.4826 c 0,-0.3429 -0.1524,-0.4445 -0.5207,-0.4445 -0.6604,0 -2.2225,0.0127 -2.8067,0 l 0.0127,-2.4638 h 3.0734 c 0.3937,0 0.5969,-0.0635 0.5969,-0.4953 v -0.4572 c 0,-0.3429 -0.127,-0.5588 -0.5207,-0.5588 h -4.2672 c -0.7239,0 -0.6096,0.4064 -0.6096,1.0287 z"
           style="font-style:normal;font-variant:normal;font-weight:normal;font-stretch:normal;font-size:12.69999981px;font-family:'Brevia Semibold';-inkscape-font-specification:'Brevia Semibold, ';stroke-width:0.26458332"
           id="path981" />
        <path
           d="m 67.282783,143.25923 c 0.0254,0.7366 0.4064,0.8255 0.9525,0.8255 0.4953,0 0.9017,-0.0889 0.889,-0.8255 -0.0254,-0.7493 -0.4318,-0.8382 -0.9525,-0.8382 -0.508,0 -0.9144,0.0889 -0.889,0.8382 z m 1.2319,8.5979 c 0.5588,0 0.5842,-0.3937 0.5334,-0.9144 -0.0254,-0.127 -0.0254,-0.4191 -0.0254,-0.7874 -0.0254,-1.0541 0.0127,-2.9591 0.0762,-4.4958 0.0254,-0.6223 -0.254,-0.7874 -1.0287,-0.7874 -0.9271,0 -0.7366,0.4318 -0.7366,0.8255 0,0.9271 0,2.667 -0.0381,4.3815 0,0.4064 -0.0127,0.762 -0.0127,1.0033 0,0.3556 0.0508,0.7747 0.5715,0.7747 z"
           style="font-style:normal;font-variant:normal;font-weight:normal;font-stretch:normal;font-size:12.69999981px;font-family:'Brevia Semibold';-inkscape-font-specification:'Brevia Semibold, ';stroke-width:0.26458332"
           id="path983" />
        <path
           d="m 75.575879,146.56123 c 0.1524,-0.127 0.4445,-0.6604 0.381,-1.016 -0.0381,-0.3048 -0.5207,-0.8001 -2.3241,-0.8001 -1.7272,0 -2.7686,0.8001 -2.7686,2.0828 0,0.9271 0.4318,1.5113 1.7018,1.905 l 0.9398,0.2921 c 0.6223,0.1905 1.0541,0.4191 1.0541,0.8509 0,0.6096 -0.6731,0.8001 -1.3335,0.8001 -1.143,0 -1.9177,-0.5461 -1.9177,-0.5461 -0.0762,0.0381 -0.3683,0.4572 -0.3429,0.9017 0.0127,0.4445 0.5461,0.9525 2.3241,0.9525 1.9177,0 2.9972,-0.8763 2.9972,-2.2098 0,-1.016 -0.5842,-1.5748 -1.9304,-1.9685 l -0.9779,-0.2921 c -0.5334,-0.1524 -0.7874,-0.3556 -0.7874,-0.7239 0,-0.6477 0.7239,-0.7366 1.1557,-0.7366 1.0795,0 1.8288,0.508 1.8288,0.508 z"
           style="font-style:normal;font-variant:normal;font-weight:normal;font-stretch:normal;font-size:12.69999981px;font-family:'Brevia Semibold';-inkscape-font-specification:'Brevia Semibold, ';stroke-width:0.26458332"
           id="path985" />
        <path
           d="m 79.246174,151.85713 c 0.5715,0 0.5842,-0.3937 0.5461,-0.9144 -0.0127,-0.127 -0.0254,-0.4191 -0.0254,-0.7874 -0.0127,-0.4699 -0.0254,-1.4986 -0.0127,-2.6289 0.1778,-0.381 0.7239,-1.3843 1.7018,-1.3843 0.7747,0 1.1303,0.6477 1.1303,1.4478 0,1.2446 -0.0635,2.413 -0.0635,3.5687 0,0.4572 0.2032,0.8255 1.0287,0.8255 0.8128,0 0.7747,-0.3556 0.762,-0.762 -0.0254,-1.5367 0.0635,-2.6162 0.0762,-3.6449 0,-1.3716 -0.4953,-2.8321 -2.3114,-2.8321 -1.4859,0 -2.0828,1.0541 -2.1717,1.3843 h -0.1397 c 0.0127,-0.9017 0.0254,-1.7653 0.0635,-2.3749 0.0254,-0.6223 -0.254,-0.9144 -1.016,-0.9144 -0.9271,0 -0.7493,0.4318 -0.7493,0.8255 0,0.9271 0,4.699 -0.0381,6.4135 v 1.0033 c 0,0.3556 0.0508,0.7747 0.5715,0.7747 z"
           style="font-style:normal;font-variant:normal;font-weight:normal;font-stretch:normal;font-size:12.69999981px;font-family:'Brevia Semibold';-inkscape-font-specification:'Brevia Semibold, ';stroke-width:0.26458332"
           id="path987" />
        <path
           d="m 86.955064,151.85713 h 4.3307 c 0.4445,0 0.5207,-0.127 0.508,-0.4572 0.0127,-0.1778 0.0127,-0.3429 0.0127,-0.5207 0,-0.3556 -0.1651,-0.5715 -0.5334,-0.5334 -0.3556,0.0381 -2.2479,0.0381 -3.2004,0.0381 -0.0254,-1.2192 0,-4.4196 0.0254,-5.715 0,-0.3302 0.0127,-0.5842 0,-0.6858 -0.0127,-0.3556 -0.0508,-0.762 -0.5715,-0.762 h -0.6985 c -0.3937,0 -0.4699,0.1778 -0.4826,0.4572 -0.0127,0.4064 0.0254,0.7747 0.0254,1.1684 0,1.1049 0.0127,3.7719 -0.0127,5.2705 v 0.9652 c 0.0127,0.3556 0.0762,0.7747 0.5969,0.7747 z"
           style="font-style:normal;font-variant:normal;font-weight:normal;font-stretch:normal;font-size:12.69999981px;font-family:'Brevia Semibold';-inkscape-font-specification:'Brevia Semibold, ';stroke-width:0.26458332"
           id="path989" />
        <path
           d="m 106.62731,151.98413 c 0.8128,0 0.7747,-0.3556 0.762,-0.762 -0.0254,-1.5367 0.0762,-2.6162 0.0762,-3.6449 0.0127,-1.3716 -0.4953,-2.8321 -2.3495,-2.8321 -1.4605,0 -2.032,1.0541 -2.1209,1.3843 h -0.0889 c 0,-0.254 0,-0.4191 -0.0254,-0.508 -0.0508,-0.4191 -0.2286,-0.8763 -0.9906,-0.8763 -0.9779,0 -0.7366,0.4318 -0.7366,0.8255 0,0.5842 0,2.794 -0.0381,4.5085 0,0.4064 -0.0127,0.762 -0.0127,1.0033 0,0.3556 0.0508,0.7747 0.5715,0.7747 h 0.6604 c 0.5588,0 0.5842,-0.3937 0.5334,-0.9144 -0.0127,-0.127 -0.0127,-0.4191 -0.0127,-0.7874 -0.0127,-0.7112 0,-1.778 0.0127,-2.667 0.1905,-0.4064 0.7239,-1.3462 1.6764,-1.3462 0.7747,0 1.1557,0.6477 1.1557,1.4478 0,1.2446 -0.1016,2.413 -0.1016,3.5687 0,0.4572 0.2159,0.8255 1.0287,0.8255 z"
           style="font-style:normal;font-variant:normal;font-weight:normal;font-stretch:normal;font-size:12.69999981px;font-family:'Brevia Semibold';-inkscape-font-specification:'Brevia Semibold, ';stroke-width:0.26458332"
           id="path991" />
        <path
           d="m 113.71388,146.56123 c 0.1524,-0.127 0.4445,-0.6604 0.381,-1.016 -0.0381,-0.3048 -0.5207,-0.8001 -2.3241,-0.8001 -1.7272,0 -2.7686,0.8001 -2.7686,2.0828 0,0.9271 0.4318,1.5113 1.7018,1.905 l 0.9398,0.2921 c 0.6223,0.1905 1.0541,0.4191 1.0541,0.8509 0,0.6096 -0.6731,0.8001 -1.3335,0.8001 -1.143,0 -1.9177,-0.5461 -1.9177,-0.5461 -0.0762,0.0381 -0.3683,0.4572 -0.3429,0.9017 0.0127,0.4445 0.5461,0.9525 2.3241,0.9525 1.9177,0 2.9972,-0.8763 2.9972,-2.2098 0,-1.016 -0.5842,-1.5748 -1.9304,-1.9685 l -0.9779,-0.2921 c -0.5334,-0.1524 -0.7874,-0.3556 -0.7874,-0.7239 0,-0.6477 0.7239,-0.7366 1.1557,-0.7366 1.0795,0 1.8288,0.508 1.8288,0.508 z"
           style="font-style:normal;font-variant:normal;font-weight:normal;font-stretch:normal;font-size:12.69999981px;font-family:'Brevia Semibold';-inkscape-font-specification:'Brevia Semibold, ';stroke-width:0.26458332"
           id="path993" />
        <path
           d="m 121.04178,148.64403 c 0.4699,0 0.7874,-0.2032 0.7874,-1.3208 0,-1.3716 -0.9906,-2.5781 -2.8194,-2.5781 -2.0828,0 -3.2639,1.5494 -3.2639,3.5814 0,2.0701 0.9779,3.6576 3.3655,3.6576 1.0541,0 1.8161,-0.3937 2.0574,-0.5461 0.2921,-0.1905 0.4064,-0.4826 0.3048,-0.8763 -0.1016,-0.3429 -0.3556,-0.5207 -0.3556,-0.5207 -0.127,0.0762 -0.9017,0.6096 -1.905,0.6096 -1.27,0 -1.8415,-0.9652 -1.8542,-1.9685 l 0.0254,-0.0381 z m -3.6449,-0.9652 c 0,-0.5969 0.3429,-1.6256 1.5748,-1.6256 0.8763,0 1.2827,0.4572 1.2827,1.27 0,0.1905 -0.0381,0.3556 -0.0381,0.3556 z"
           style="font-style:normal;font-variant:normal;font-weight:normal;font-stretch:normal;font-size:12.69999981px;font-family:'Brevia Semibold';-inkscape-font-specification:'Brevia Semibold, ';stroke-width:0.26458332"
           id="path995" />
      </g>
      <path
         id="path819"
         d="m 98.40917,151.21277 c -0.03186,-1.31129 -0.53693,-4.22171 -2.302252,-5.37323 -0.313209,-0.20431 -0.618657,-0.35278 -0.912234,-0.45624 m 4.543162,3.79256 c -1.212918,0.49932 -4.080065,1.21005 -5.845387,0.0585 -0.313209,-0.20431 -0.572193,-0.42401 -0.785202,-0.65098 m 0,0 c -0.987658,-1.05245 -0.823448,-2.81802 -0.823448,-2.81802 0,0 1.549644,-0.86183 2.910875,-0.38209 m -2.087427,3.20011 c 0.681951,-0.30357 2.054175,-1.3686 2.087427,-3.20011 m 0.816144,2.08733 c 0.05902,0.28046 0.0088,0.8768 -0.664338,1.01845"
         inkscape:connector-curvature="0"
         style="fill:none;stroke:#ff0000;stroke-width:0.81064999;stroke-linecap:round;stroke-opacity:1" />
      <path
         id="path821"
         d="m 93.863195,146.31169 -3.4e-4,-2.2e-4"
         inkscape:connector-curvature="0"
         style="fill:none;stroke:#ff0000;stroke-width:0.81064999;stroke-linecap:round;stroke-opacity:1" />
      <g
         style="fill:#000000"
         id="g875"
         transform="matrix(0.44288221,0,0,0.44288221,89.819835,142.02864)">
        <path
           id="path864"
           d="M 31.707,30.282 21.99,20.506 c 1.811,-2.169 2.902,-4.96 2.902,-8.007 0,-6.904 -5.596,-12.5 -12.5,-12.5 -6.904,0 -12.5,5.596 -12.5,12.5 0,6.904 5.596,12.5 12.5,12.5 3.136,0 6.002,-1.158 8.197,-3.067 l 9.703,9.764 c 0.39,0.39 1.024,0.39 1.415,0 0.391,-0.39 0.39,-1.023 0,-1.415 z M 12.393,23.016 c -5.808,0 -10.517,-4.709 -10.517,-10.517 0,-5.808 4.708,-10.517 10.517,-10.517 5.808,0 10.516,4.708 10.516,10.517 0,5.809 -4.709,10.517 -10.517,10.517 z"
           inkscape:connector-curvature="0" />
      </g>
    </g>
  </g>
</svg>
